<svg width="18" height="18" viewBox="0 0 18 18" fill="none" xmlns="http://www.w3.org/2000/svg">
<path fill-rule="evenodd" clip-rule="evenodd" d="M5.81016 12.1909C9.01433 15.3951 11.9835 15.7459 12.8552 15.7784C13.9085 15.8167 14.9835 14.9567 15.4485 14.0759C14.7068 13.2059 13.741 12.5309 12.6835 11.7992C12.0593 12.4226 11.2902 13.5809 10.266 13.1659C9.6835 12.9317 8.24516 12.2692 6.9885 11.0117C5.731 9.75506 5.06933 8.31672 4.8335 7.73506C4.4185 6.70922 5.58016 5.93839 6.20433 5.31422C5.47266 4.23922 4.80933 3.24839 3.941 2.54422C3.04766 3.01089 2.18266 4.07756 2.22183 5.14506C2.25433 6.01672 2.60516 8.98589 5.81016 12.1909ZM12.7935 17.4442C11.5935 17.4001 8.19266 16.9301 4.631 13.3692C1.07016 9.80756 0.600996 6.40756 0.555996 5.20672C0.489329 3.37672 1.891 1.59922 3.51016 0.905058C3.70514 0.820863 3.91866 0.788808 4.12977 0.812037C4.34088 0.835266 4.54232 0.912982 4.71433 1.03756C6.05433 2.01506 6.9785 3.49589 7.77266 4.65589C7.93787 4.8971 8.01355 5.18848 7.98662 5.47959C7.95968 5.77071 7.83182 6.04325 7.62516 6.25006L6.49516 7.38089C6.75766 7.96006 7.29183 8.95839 8.16683 9.83339C9.04183 10.7084 10.0402 11.2426 10.6202 11.5051L11.7493 10.3751C11.9569 10.168 12.2306 10.0403 12.5227 10.0142C12.8148 9.98819 13.1067 10.0655 13.3477 10.2326C14.531 11.0526 15.921 11.9634 16.9343 13.2609C17.069 13.4341 17.1547 13.6404 17.1824 13.8581C17.2101 14.0758 17.1788 14.2969 17.0918 14.4984C16.3943 16.1259 14.6293 17.5117 12.7935 17.4442Z" fill="#00FF57"/>
</svg>
